HIERARCHY
ROOT hip
{
  OFFSET 0 0 0
  CHANNELS 6 Xposition Yposition Zposition Zrotation Yrotation Xrotation
  JOINT abdomen
  {
    OFFSET 0 20.6881 -0.73152
    CHANNELS 3 Zrotation Xrotation Yrotation
    JOINT chest
    {
      OFFSET 0 11.7043 -0.48768
      CHANNELS 3 Zrotation Xrotation Yrotation
      JOINT neck
      {
        OFFSET 0 22.1894 -2.19456
        CHANNELS 3 Zrotation Xrotation Yrotation
        JOINT head
        {
          OFFSET -0.24384 7.07133 1.2192
          CHANNELS 3 Zrotation Xrotation Yrotation
          JOINT leftEye
          {
            OFFSET 4.14528 8.04674 8.04672
            CHANNELS 3 Zrotation Xrotation Yrotation
            End Site
            {
              OFFSET 1 0 0
            }
          }
          JOINT rightEye
          {
            OFFSET -3.6576 8.04674 8.04672
            CHANNELS 3 Zrotation Xrotation Yrotation
            End Site
            {
              OFFSET 1 0 0
            }
          }
        }
      }
      JOINT rCollar
      {
        OFFSET -2.68224 19.2634 -4.8768
        CHANNELS 3 Zrotation Xrotation Yrotation
        JOINT rShldr
        {
          OFFSET -8.77824 -1.95073 1.46304
          CHANNELS 3 Zrotation Xrotation Yrotation
          JOINT rForeArm
          {
            OFFSET -28.1742 -1.7115 0.48768
            CHANNELS 3 Zrotation Xrotation Yrotation
            JOINT rHand
            {
              OFFSET -22.5879 0.773209 7.07136
              CHANNELS 3 Zrotation Xrotation Yrotation
              JOINT rThumb1
              {
                OFFSET -1.2192 -0.487915 3.41376
                CHANNELS 3 Zrotation Xrotation Yrotation
                JOINT rThumb2
                {
                  OFFSET -3.37035 -0.52449 3.41376
                  CHANNELS 3 Zrotation Xrotation Yrotation
                  End Site
                  {
                    OFFSET -1.78271 -1.18214 1.43049
                  }
                }
              }
              JOINT rIndex1
              {
                OFFSET -7.75947 0.938293 5.60832
                CHANNELS 3 Zrotation Xrotation Yrotation
                JOINT rIndex2
                {
                  OFFSET -2.54057 -0.884171 1.56538
                  CHANNELS 3 Zrotation Xrotation Yrotation
                  End Site
                  {
                    OFFSET -1.62519 -0.234802 1.16502
                  }
                }
              }
              JOINT rMid1
              {
                OFFSET -8.24714 1.18213 3.41376
                CHANNELS 3 Zrotation Xrotation Yrotation
                JOINT rMid2
                {
                  OFFSET -3.10165 -0.590103 1.0647
                  CHANNELS 3 Zrotation Xrotation Yrotation
                  End Site
                  {
                    OFFSET -2.48547 -0.328903 0.83742
                  }
                }
              }
              JOINT rRing1
              {
                OFFSET -8.82822 0.546677 1.51678
                CHANNELS 3 Zrotation Xrotation Yrotation
                JOINT rRing2
                {
                  OFFSET -2.60934 -0.819778 -0.0198488
                  CHANNELS 3 Zrotation Xrotation Yrotation
                  End Site
                  {
                    OFFSET -2.33842 -0.294052 0.168128
                  }
                }
              }
              JOINT rPinky1
              {
                OFFSET -8.27202 -0.0477905 -0.4584
                CHANNELS 3 Zrotation Xrotation Yrotation
                JOINT rPinky2
                {
                  OFFSET -1.82734 -0.647385 -0.700984
                  CHANNELS 3 Zrotation Xrotation Yrotation
                  End Site
                  {
                    OFFSET -1.69225 -0.51767 -0.607171
                  }
                }
              }
            }
          }
        }
      }
      JOINT lCollar
      {
        OFFSET 2.68224 19.2634 -4.8768
        CHANNELS 3 Zrotation Xrotation Yrotation
        JOINT lShldr
        {
          OFFSET 8.77824 -1.95073 1.46304
          CHANNELS 3 Zrotation Xrotation Yrotation
          JOINT lForeArm
          {
            OFFSET 28.1742 -1.7115 0.48768
            CHANNELS 3 Zrotation Xrotation Yrotation
            JOINT lHand
            {
              OFFSET 22.5879 0.773209 7.07136
              CHANNELS 3 Zrotation Xrotation Yrotation
              JOINT lThumb1
              {
                OFFSET 1.2192 -0.487915 3.41376
                CHANNELS 3 Zrotation Xrotation Yrotation
                JOINT lThumb2
                {
                  OFFSET 3.37035 -0.52449 3.41376
                  CHANNELS 3 Zrotation Xrotation Yrotation
                  End Site
                  {
                    OFFSET 1.78271 -1.18214 1.43049
                  }
                }
              }
              JOINT lIndex1
              {
                OFFSET 7.75947 0.938293 5.60832
                CHANNELS 3 Zrotation Xrotation Yrotation
                JOINT lIndex2
                {
                  OFFSET 2.54057 -0.884171 1.56538
                  CHANNELS 3 Zrotation Xrotation Yrotation
                  End Site
                  {
                    OFFSET 1.62519 -0.234802 1.16502
                  }
                }
              }
              JOINT lMid1
              {
                OFFSET 8.24714 1.18213 3.41376
                CHANNELS 3 Zrotation Xrotation Yrotation
                JOINT lMid2
                {
                  OFFSET 3.10165 -0.590103 1.0647
                  CHANNELS 3 Zrotation Xrotation Yrotation
                  End Site
                  {
                    OFFSET 2.48547 -0.328903 0.83742
                  }
                }
              }
              JOINT lRing1
              {
                OFFSET 8.82822 0.546677 1.51678
                CHANNELS 3 Zrotation Xrotation Yrotation
                JOINT lRing2
                {
                  OFFSET 2.60934 -0.819778 -0.0198488
                  CHANNELS 3 Zrotation Xrotation Yrotation
                  End Site
                  {
                    OFFSET 2.33842 -0.294052 0.168128
                  }
                }
              }
              JOINT lPinky1
              {
                OFFSET 8.27202 -0.0477905 -0.4584
                CHANNELS 3 Zrotation Xrotation Yrotation
                JOINT lPinky2
                {
                  OFFSET 1.82734 -0.647385 -0.700984
                  CHANNELS 3 Zrotation Xrotation Yrotation
                  End Site
                  {
                    OFFSET 1.69225 -0.51767 -0.607171
                  }
                }
              }
            }
          }
        }
      }
    }
  }
  JOINT rButtock
  {
    OFFSET -8.77824 4.35084 1.2192
    CHANNELS 3 Zrotation Xrotation Yrotation
    JOINT rThigh
    {
      OFFSET 0 -1.70687 -2.19456
      CHANNELS 3 Zrotation Xrotation Yrotation
      JOINT rShin
      {
        OFFSET 0 -36.8199 0.73152
        CHANNELS 3 Zrotation Xrotation Yrotation
        JOINT rFoot
        {
          OFFSET 0.73152 -45.1104 -5.12064
          CHANNELS 3 Zrotation Xrotation Yrotation
          End Site
          {
            OFFSET -1.1221 -3.69964 12.103
          }
        }
      }
    }
  }
  JOINT lButtock
  {
    OFFSET 8.77824 4.35084 1.2192
    CHANNELS 3 Zrotation Xrotation Yrotation
    JOINT lThigh
    {
      OFFSET 0 -1.70687 -2.19456
      CHANNELS 3 Zrotation Xrotation Yrotation
      JOINT lShin
      {
        OFFSET 0 -36.8199 0.73152
        CHANNELS 3 Zrotation Xrotation Yrotation
        JOINT lFoot
        {
          OFFSET -0.73152 -45.1104 -5.12064
          CHANNELS 3 Zrotation Xrotation Yrotation
          End Site
          {
            OFFSET 1.1221 -3.69964 12.103
          }
        }
      }
    }
  }
}
MOTION
Frames:	9
Frame Time:	0.00833333
0.0 0.0 0.0 0.0 0.0 0.0 0.0 0.0 0.0 0.0 0.0 0.0 0.0 0.0 0.0 0.0 0.0 0.0 0.0 0.0 0.0 0.0 0.0 0.0 0.0 0.0 0.0 0.0 0.0 0.0 0.0 0.0 0.0 0.0 0.0 0.0 0.0 0.0 0.0 0.0 0.0 0.0 0.0 0.0 0.0 0.0 0.0 0.0 0.0 0.0 0.0 0.0 0.0 0.0 0.0 0.0 0.0 0.0 0.0 0.0 0.0 0.0 0.0 0.0 0.0 0.0 0.0 0.0 0.0 0.0 0.0 0.0 0.0 0.0 0.0 0.0 0.0 0.0 0.0 0.0 0.0 0.0 0.0 0.0 0.0 0.0 0.0 0.0 0.0 0.0 0.0 0.0 0.0 0.0 0.0 0.0 0.0 0.0 0.0 0.0 0.0 0.0 0.0 0.0 0.0 0.0 0.0 0.0 0.0 0.0 0.0 0.0 0.0 0.0 0.0 0.0 0.0 0.0 0.0 0.0 0.0 0.0 0.0 0.0 0.0 0.0 0.0 0.0 0.0 0.0 0.0 0.0
226.0681 53.308699999999995 68.4496 -3.608258 -28.535186 5.359316 -1.680399 -4.761637 160.536004 0.291431 -2.280875 -161.455773 -9.505996 9.271746 -65.604599 14.282077 7.126348 54.079653 -0.000151 -0.0 0.004053 -0.000151 -0.0 0.004053 0.118034 -0.714171 -0.156829 -139.093574 72.563193 144.920798 17.332822 44.184312 -77.905702 169.248998 -22.425522 142.864344 -0.47475 0.467913 0.075223 -1.246237 1.629635 1.349581 -157.327149 -28.217127 122.491933 145.733576 -67.298844 86.539649 -161.153604 -8.160625 143.465122 -161.243798 1.253758 142.228759 -145.120452 0.310392 -179.225124 12.108543 40.325766 -4.41244 -157.331647 57.24641 -150.510696 12.280747 32.33902 5.28813 2.746545 13.830441 -3.437977 167.324175 44.410575 -171.141322 -78.994367 33.866479 91.633501 164.517466 45.327918 -137.521169 161.772492 0.529069 -89.181481 98.26038 7.440394 -41.893407 151.351796 -17.159036 -121.132585 -31.743223 -39.403286 7.845393 161.518869 -9.304686 -143.623753 -6.720122 -10.494828 0.705543 75.67403 -72.116101 92.828935 68.901606 -82.311568 94.890448 125.808432 -27.878675 123.552975 33.40786 -45.656449 34.998824 -0.003448 0.000597 -0.001724 -4.34992 -12.272955 -0.0 1.004369 26.365704 -82.337204 151.243749 0.317439 -54.814042 -179.978721 75.749044 -0.017507 -175.202231 59.741458 -5.550107 -15.350643 34.81801 -125.892042 -128.021439 41.223093 -163.634913
226.06510000000003 53.305 68.4554 -3.611742 -28.54302 5.306801 0.715865 -4.587175 -144.736778 1.778725 -0.550035 143.135714 -6.978965 21.172271 -132.765783 9.185483 24.763509 108.753033 0.002301 0.0 0.002081 0.001906 -0.0 -0.00126 -149.957222 22.247459 155.034369 10.589496 -12.096875 4.600028 177.937633 -22.205348 -111.209089 -10.750577 27.406711 1.26983 93.028145 -51.084518 40.501284 -155.807932 -10.795622 119.107366 -77.668053 43.029403 64.538232 83.67151 -64.402575 37.013199 -160.673868 -6.667755 143.245078 -155.873464 15.494777 139.525648 -71.922984 72.974726 89.771457 3.236206 44.980026 2.577754 -79.553621 -51.374736 -77.988623 -146.925343 13.244267 -143.091894 159.220884 -48.028491 -170.415103 142.261916 39.250643 -155.907374 -0.964752 -19.359712 -74.85705 7.974971 16.13852 0.339736 175.32971 -12.975084 -89.797249 -63.162232 -70.417179 -48.261614 77.668236 43.029405 -64.538139 174.304847 -26.079844 -113.063208 0.339602 0.982034 -0.188405 17.956776 42.289985 -14.412187 75.674381 -72.115715 92.829056 -14.729545 0.849014 4.54853 -5.662508 16.872529 -5.085618 24.560048 -41.285862 24.935986 179.998155 75.750465 -0.0 158.323936 52.012043 26.762124 32.599853 45.989864 -148.584521 39.912744 59.738581 63.273537 179.996451 75.749739 0.002428 -165.163976 49.092645 -0.0 -12.096922 47.719974 -8.259183 32.893704 -3.468037 20.446725
226.0431 53.301 68.4608 -3.594391 -28.543883 5.261988 0.579781 -0.612214 -26.200585 1.640964 -6.895968 23.875236 -11.821951 11.510232 -61.136805 22.348505 8.599243 25.362556 0.000781 0.0 0.001621 0.000781 0.0 0.001621 0.070892 -0.427776 -0.095179 9.867114 0.966669 15.982569 -1.231767 5.965613 100.423084 -5.889331 11.613618 -0.64238 -78.031121 38.689254 42.412287 73.942562 -48.574181 27.730241 -14.228626 19.203724 9.558712 -11.196304 25.064892 7.66503 -160.825923 -7.141586 143.317354 167.278476 -63.976105 132.404677 -75.404248 72.953804 93.419792 -153.364426 -56.268066 -172.476134 177.359 85.932361 -135.566232 -129.228326 -28.524062 -126.006205 153.915092 5.746694 -159.742938 -17.149689 16.209192 -2.670993 -2.568178 0.813118 137.647038 -177.148032 -9.761237 -143.579617 -4.531641 -4.51378 0.521158 -25.590005 -49.213812 20.547429 153.476693 -21.112093 -121.749931 -32.083869 -39.326316 7.893563 -5.892987 -18.351998 2.543791 4.63655 20.456549 -4.166034 0.022929 -1.725899 0.543406 149.842276 38.863106 -164.840065 146.184025 15.332796 142.71071 25.758565 -40.233276 27.025083 -0.005222 -0.001797 -0.002611 -27.828836 -27.364739 131.04764 -11.73311 -78.54723 -60.42388 43.999229 52.241045 -163.668674 -0.0 -0.001158 -0.000838 23.737725 -32.924602 -125.553496 -35.254189 -73.546661 52.565358 178.829835 -1.951049 -100.495805
226.01010000000002 53.2987 68.46799999999999 -3.588414 -28.566337 5.209714 -0.162707 -5.215925 -175.165203 1.169496 3.858078 172.159737 6.279819 10.247558 70.594695 -14.354271 -5.781113 -114.485817 -0.004134 0.0 -0.005321 -0.002733 -0.0 0.001666 -153.591548 -75.693496 -178.261523 -156.066942 -64.26097 178.868121 53.130292 -8.652478 173.550974 -137.782077 64.849019 114.559929 2.012576 -1.99662 -0.274899 -150.61174 -62.438149 121.848853 -162.919394 -37.9297 122.627904 133.177383 -69.540649 74.54007 -160.574794 -6.35899 143.198567 -1.399358 12.594516 2.557171 -145.121436 1.975856 -179.747979 11.724693 28.351727 -5.774691 -144.260353 9.236894 -141.011171 16.628141 42.727655 5.976336 155.80959 -5.55526 -162.267218 -19.206747 16.104286 -1.517682 70.495107 45.659222 105.525944 -133.238432 -70.159547 -113.283844 178.926867 -16.453959 -89.421896 8.608947 -52.622711 -0.735122 10.571166 15.01368 -6.864337 66.673304 48.452694 -49.914815 0.058057 0.167724 -0.032995 33.290141 54.590344 -27.982878 -0.002384 0.063963 -0.01964 77.418582 78.794214 -90.823179 -12.989826 44.34415 -10.76037 -2.938197 3.502565 -0.700973 -0.000763 -0.000697 0.000981 -36.248541 -26.396776 -58.768655 48.097435 85.866543 43.61812 -170.748821 -22.529965 125.608432 -0.000832 0.001001 0.00107 31.219323 -34.187909 82.641148 89.395366 47.393131 -6.986148 158.991001 -68.972447 79.315215
225.9811 53.2988 68.4787 -3.564401 -28.601297 5.159924 0.740904 -5.000522 -152.5523 3.75496 3.452034 149.413276 -13.144743 15.402156 -76.671127 25.297476 14.969005 28.816056 -0.002185 0.0 -2.6e-05 -0.003391 0.0 -0.001191 4.240292 -44.742714 -8.647317 -147.551804 15.021317 162.18427 -165.697165 69.244479 19.560048 171.656413 -22.377269 142.838406 -15.475415 14.198502 4.249044 -11.070359 9.720652 17.527511 10.747652 -19.047918 -4.723627 12.539034 1.830322 -0.867768 -125.64274 49.839443 115.273749 -159.270036 6.325547 141.553077 -0.019516 -1.725972 -0.543008 7.583832 26.549433 4.02347 32.64077 83.587643 5.702825 30.921736 75.06634 2.590897 -2.459778 -18.216353 3.669204 -40.604897 -61.614171 -39.743176 27.526251 -6.959928 169.160579 -154.081861 -59.343363 -131.382892 -8.271035 -8.262954 0.681649 147.114445 -59.479484 -126.838938 77.66806 43.028793 -64.538295 67.429419 51.976031 -46.872311 160.673277 -6.667905 -143.244895 -179.886005 -48.694466 -140.888734 -0.004021 1.76948 -0.556139 -9.563315 -62.554647 9.187496 -3.762693 10.729174 -3.419582 153.596661 33.431551 147.861006 -179.997827 75.750097 -0.001487 135.130108 33.77079 0.0 146.22254 83.48017 118.634512 28.518113 -32.027453 85.038731 -0.0 0.000523 0.001046 35.872343 -35.452773 142.068646 102.430699 -1.031371 83.236573 133.124092 9.306178 139.261619
225.9531 53.29970000000001 68.4864 -3.552454 -28.62772 5.115557 0.852197 -4.909643 -147.453649 4.140393 3.055051 144.404665 -12.993998 17.319656 -87.976867 23.834895 19.358108 40.15181 0.002591 -0.0 -0.000335 -0.003003 -0.0 0.000246 -48.787117 -86.434952 -70.449969 -151.707909 -1.553968 173.551075 177.707412 52.072039 33.795804 174.890866 -12.771811 143.680419 -12.608627 11.778564 3.199841 -14.403687 12.487649 18.917611 -46.208493 39.65315 36.317982 -12.353768 25.073702 5.483926 -160.674402 -6.667572 143.24542 29.964201 -60.066622 7.103304 -0.020909 -1.726081 -0.542267 9.857946 7.694095 0.937477 -145.129066 11.922376 -141.78177 1.300666 -2.479955 -2.78174 -3.268369 -26.755863 5.241693 -92.668319 -71.330503 -85.13279 -85.405237 -51.217726 102.34195 152.002919 51.955769 -126.425491 -177.231206 -20.035564 -88.777125 69.346018 6.244959 -17.528008 -45.282793 -63.865357 -4.306415 28.803758 45.634057 -23.246937 10.976385 25.789666 -7.640753 83.193961 64.329566 -75.26048 -0.003305 0.063756 -0.02053 -10.307129 0.21235 0.038849 126.795754 -26.618259 124.511543 160.668762 54.423283 147.249471 179.995913 75.749438 0.002796 136.817024 32.934434 -88.057383 -93.943086 19.235572 -173.927629 160.878099 35.443238 112.923529 -0.000185 0.000204 0.000238 37.316474 -35.102106 -127.030599 -120.787286 -80.797935 126.861891 -49.828137 6.505008 -59.624331
225.9251 53.3019 68.49380000000001 -3.540005 -28.65756 5.075036 0.948801 -4.773621 -141.643007 4.353406 2.38166 138.790082 3.742139 7.510749 49.78561 -7.47942 -10.811629 -94.483236 0.001901 0.0 0.004236 -0.003997 0.0 -0.000721 -6.259875 26.245113 7.477789 154.013135 -62.339899 138.436831 169.6469 47.071681 -55.734416 -14.256316 32.222707 2.518345 -103.199785 36.331282 60.111284 -99.995044 -6.962045 63.828157 -151.353989 -17.158777 121.131703 -168.757347 -30.238274 118.587516 -15.422702 32.962051 11.294355 3.326741 0.071983 0.020221 0.004781 0.875921 0.277157 -156.631235 -30.237642 175.399997 -46.800207 -48.625524 -45.559086 -127.712457 -28.63671 -126.704035 155.46009 -3.22775 -161.777666 153.574343 -0.201857 -178.254184 26.35714 7.655026 -132.817571 -4.691689 -30.230196 1.137615 68.482162 37.95356 -35.660008 -35.216024 -31.472219 -16.652301 -19.569632 -35.04001 5.986265 -14.505172 1.144092 1.951487 169.09169 -33.247114 -145.374552 -2.992196 0.377496 -0.389111 0.021739 -1.724494 0.540967 52.639746 -86.662131 74.27919 -6.227843 18.789809 -5.571914 147.267748 10.258666 143.290539 179.993509 75.748193 0.004441 137.334326 35.381106 -0.0 88.058793 73.631212 5.760629 -132.090211 -49.996675 165.170121 0.002096 -0.000247 0.002096 35.006899 -33.497099 -56.350323 -93.255306 -9.037302 178.98209 -142.118551 58.354295 24.637549
225.8981 53.304399999999994 68.4998 -3.52971 -28.689776 5.040615 -0.272748 -5.274951 -171.676227 1.274818 3.692973 168.8373 -12.845979 16.615641 -85.853886 23.181673 18.418224 41.177588 0.00111 0.0 0.002128 -0.000257 0.0 -0.004884 4.239 -44.742789 -8.647688 -111.729525 65.348928 131.692762 -24.895592 -39.583156 97.044525 0.188397 -9.00947 -1.123938 114.539321 -50.246213 55.721929 -58.377995 24.23357 13.074794 -4.705694 7.22463 2.853128 175.719387 -39.763708 103.798136 -87.467406 60.88811 78.984859 -16.127287 40.094563 13.151019 -145.122165 1.976807 -179.748039 -148.277278 -43.038984 -170.607033 5.948588 17.838577 5.332702 -147.992019 12.686002 -143.878132 2.645975 13.400434 -3.318356 -89.706006 -79.507275 -88.617269 78.340332 64.932883 156.500284 -1.723249 -21.525334 1.913157 173.977188 -11.643119 -89.881188 -58.439049 -69.583011 -44.808893 35.097676 35.161972 -26.61059 25.663986 36.136359 -15.03427 160.67261 -6.66798 -143.245037 -9.980156 -20.331606 1.139028 0.00025 0.063898 -0.019256 -10.31953 0.112427 0.051751 145.171658 12.067248 141.824343 94.11267 -50.074241 93.21911 -0.003662 -0.000752 -0.001831 -36.398054 -26.297539 -58.995916 34.565645 85.295409 47.522499 175.952629 27.325807 97.213713 -0.003662 -0.000752 -0.001831 33.515829 -34.609944 -130.617026 127.777403 -84.179727 -171.120547 -168.614106 1.680287 -129.002301
